<svg width="171" height="32" viewBox="0 0 171 32" fill="none" xmlns="http://www.w3.org/2000/svg">
<path fill-rule="evenodd" clip-rule="evenodd" d="M145.35 23.4947C143.925 23.1423 143.569 22.4376 143.39 21.0286C143.035 18.7384 143.035 13.1021 143.39 10.636C143.569 9.40292 144.281 8.69892 145.35 8.34656C146.597 7.99421 157.997 7.81821 159.243 8.34656C160.312 8.69892 160.669 9.40328 160.846 10.4604C161.381 12.7498 161.381 18.5628 160.846 20.8522C160.669 21.9093 160.312 22.4376 159.243 22.966C158.175 23.8471 146.953 23.8471 145.35 23.4947ZM162.984 0.596496C159.6 -0.108217 146.597 -0.284573 141.431 0.596496C137.513 1.30085 134.485 4.119 133.593 7.64185C132.881 11.6934 132.881 20.6766 133.593 24.3754C134.306 27.7223 137.156 30.7164 141.431 31.4208C145.884 32.3018 159.066 32.1255 163.163 31.2448C167.972 30.1881 169.931 26.6648 170.466 24.3754C171.178 20.8522 171.178 11.8691 170.466 7.64185C169.575 3.94264 166.369 1.30085 162.984 0.596496H162.984ZM118.275 0.772495H128.072V31.2451H118.275V0.772495ZM102.6 19.6198C104.203 19.9715 104.56 21.2046 104.56 22.262C104.56 23.3187 104.381 24.5514 102.6 24.7281C100.64 25.0798 94.05 25.0798 91.5561 24.7281C90.4874 24.5518 89.2409 24.5518 88.8842 22.6143V22.0856H79.0872C79.0872 22.262 79.0872 22.7903 79.2652 23.4951C79.6216 27.5459 81.2248 30.3644 85.8563 31.2451C89.5972 31.9498 103.669 32.1258 107.943 31.2451C112.931 30.1884 114.178 25.7848 114.178 21.9096C114.178 17.5064 112.575 14.5116 108.656 13.2788C107.588 12.9265 105.094 12.7501 104.025 12.7501C103.134 12.7501 92.6254 12.3978 90.3095 12.0458C88.8845 11.8694 88.5282 10.9887 88.5282 9.75563C88.5282 8.52256 88.7065 7.64185 90.4878 7.2895C92.6254 6.93785 100.997 6.93785 101.887 7.2895C102.956 7.64185 103.313 8.34657 103.313 9.22728V9.93199H113.11C113.11 9.22728 112.931 8.69892 112.931 8.17021C112.397 3.41464 109.725 0.772496 104.916 0.420139C100.106 -0.108218 89.0625 0.0677832 85.678 0.596496C82.4721 1.30085 79.2656 3.23864 79.2656 9.75563C79.2656 15.0403 81.7595 17.6821 86.0343 18.5628C87.2813 18.7388 90.8434 18.9151 91.3784 18.9151C92.6254 19.0911 101.887 19.4435 102.6 19.6198H102.6ZM63.9473 19.4435H53.0814L57.7129 7.2895H59.3161L63.9473 19.4435ZM66.0848 25.7845L68.2224 31.2448H78.7313L65.5498 0.596496H51.3001L38.2973 31.2448H48.8062L50.9438 25.6085L66.0848 25.7845ZM10.1535 21.2046C10.3315 22.966 11.2221 23.3183 12.1124 23.4947C13.5377 23.8471 23.6906 23.8471 25.4722 23.4947C26.7184 23.3183 27.6098 22.4376 27.7874 21.3809C27.7874 20.8522 27.9654 19.9715 27.9654 19.6195H38.1186C38.1186 20.3238 38.1186 22.0849 37.9407 23.6703C37.406 27.3696 35.2684 30.3637 30.6376 31.4204C27.4311 32.1251 11.9344 32.1251 8.37226 31.4204C4.6314 30.5397 1.42485 28.2503 0.534216 24.3751C-0.178072 20.8518 -0.178072 11.6927 0.534216 7.81785C1.06888 4.99935 3.74077 1.6525 8.19356 0.772142C12.2907 0.0674288 26.7184 -0.108572 30.6376 0.772142C35.8031 2.00521 37.406 6.58514 37.5843 8.16985C37.7623 9.93164 37.7623 11.1647 37.7623 11.8691H27.6098C27.6098 11.1647 27.7878 9.22692 26.0065 8.69892C24.9375 8.34656 14.9626 8.34656 12.4687 8.52256C11.2218 8.69892 10.5098 9.22728 10.3311 10.4604C9.79684 12.9265 9.79684 18.9151 10.1532 21.2049L10.1535 21.2046Z" fill="#003296"/>
</svg>
