<svg width="45" height="41" viewBox="0 0 45 41" fill="none" xmlns="http://www.w3.org/2000/svg">
<path d="M38.3121 7.05C38.1223 6.79691 37.8762 6.59148 37.5932 6.45C37.3102 6.30851 36.9982 6.23485 36.6818 6.23485H28.5303V4.19697C28.5303 3.11602 28.1009 2.07933 27.3365 1.31498C26.5722 0.550625 25.5355 0.121216 24.4545 0.121216H4.07576C2.9948 0.121216 1.95811 0.550625 1.19376 1.31498C0.429409 2.07933 0 3.11602 0 4.19697V30.6894C0 31.2299 0.214704 31.7482 0.596881 32.1304C0.979057 32.5126 1.4974 32.7273 2.03788 32.7273H4.07576C4.07576 34.8892 4.93458 36.9626 6.46328 38.4913C7.99199 40.02 10.0654 40.8788 12.2273 40.8788C14.3892 40.8788 16.4626 40.02 17.9913 38.4913C19.52 36.9626 20.3788 34.8892 20.3788 32.7273H24.4545C24.4545 34.8892 25.3134 36.9626 26.8421 38.4913C28.3708 40.02 30.4441 40.8788 32.6061 40.8788C34.768 40.8788 36.8414 40.02 38.3701 38.4913C39.8988 36.9626 40.7576 34.8892 40.7576 32.7273C41.8385 32.7273 42.8752 32.2979 43.6396 31.5335C44.4039 30.7692 44.8333 29.7325 44.8333 28.6515V16.4242C44.8333 15.9833 44.6903 15.5543 44.4258 15.2015L38.3121 7.05ZM12.2273 36.803C11.4212 36.803 10.6332 36.564 9.9629 36.1161C9.29265 35.6683 8.77025 35.0318 8.46176 34.287C8.15328 33.5423 8.07257 32.7228 8.22983 31.9321C8.38709 31.1415 8.77527 30.4153 9.34528 29.8453C9.91528 29.2753 10.6415 28.8871 11.4321 28.7298C12.2228 28.5726 13.0423 28.6533 13.787 28.9618C14.5317 29.2703 15.1683 29.7927 15.6161 30.4629C16.064 31.1332 16.303 31.9212 16.303 32.7273C16.303 33.8082 15.8736 34.8449 15.1093 35.6093C14.3449 36.3736 13.3082 36.803 12.2273 36.803ZM24.4545 28.6515H19.2457C18.5394 27.4134 17.5181 26.3841 16.2855 25.6682C15.0528 24.9523 13.6527 24.5752 12.2273 24.5752C10.8018 24.5752 9.40173 24.9523 8.16909 25.6682C6.93646 26.3841 5.91515 27.4134 5.20882 28.6515H4.07576V16.4242H24.4545V28.6515ZM24.4545 8.27273V12.3485H4.07576V4.19697H24.4545V8.27273ZM32.6061 36.803C31.8 36.803 31.0119 36.564 30.3417 36.1161C29.6714 35.6683 29.149 35.0318 28.8406 34.287C28.5321 33.5423 28.4514 32.7228 28.6086 31.9321C28.7659 31.1415 29.1541 30.4153 29.7241 29.8453C30.2941 29.2753 31.0203 28.8871 31.8109 28.7298C32.6015 28.5726 33.421 28.6533 34.1658 28.9618C34.9105 29.2703 35.5471 29.7927 35.9949 30.4629C36.4428 31.1332 36.6818 31.9212 36.6818 32.7273C36.6818 33.8082 36.2524 34.8449 35.4881 35.6093C34.7237 36.3736 33.687 36.803 32.6061 36.803ZM40.7576 28.6515H39.6245C39.0985 27.7204 38.3916 26.9038 37.5455 26.2499C36.6993 25.596 35.7308 25.1179 34.6972 24.8437C33.6635 24.5695 32.5854 24.5048 31.5263 24.6534C30.4673 24.8019 29.4486 25.1608 28.5303 25.7088V10.3106H35.6629L40.7576 17.1029V28.6515Z" fill="#003296"/>
</svg>
