<svg width="41" height="41" viewBox="0 0 41 41" fill="none" xmlns="http://www.w3.org/2000/svg">
<path d="M20.5 0C23.0898 0 25.1398 2.8085 27.4085 3.77883C29.6772 4.74917 33.2305 4.20933 34.9252 6.04067C36.6198 7.872 36.2167 11.2203 37.187 13.5915C38.1573 15.9627 41 17.9102 41 20.5C41 23.0898 38.1915 25.1398 37.2212 27.4085C36.2508 29.6772 36.7907 33.2305 34.9593 34.9252C33.2305 36.6472 29.7797 36.2167 27.4427 37.187C25.1057 38.1573 23.0898 41 20.5 41C17.9102 41 15.8602 38.1915 13.5915 37.2212C11.3228 36.2508 7.7695 36.7907 6.07483 34.9593C4.35283 33.2305 4.78333 29.7797 3.813 27.4427C2.84267 25.1057 0 23.0898 0 20.5C0 17.9102 2.8085 15.8602 3.77883 13.5915C4.74917 11.3228 4.20933 7.7695 6.04067 6.07483C7.872 4.38017 11.2203 4.78333 13.5915 3.77883C15.9627 2.77433 17.9102 0 20.5 0ZM20.5 6.47117C17.7254 6.47117 15.013 7.29394 12.706 8.83545C10.399 10.377 8.60086 12.568 7.53905 15.1314C6.47724 17.6948 6.19942 20.5156 6.74073 23.2369C7.28203 25.9582 8.61815 28.4579 10.5801 30.4199C12.5421 32.3818 15.0418 33.718 17.7631 34.2593C20.4844 34.8006 23.3052 34.5228 25.8686 33.461C28.432 32.3991 30.623 30.601 32.1645 28.294C33.7061 25.987 34.5288 23.2746 34.5288 20.5C34.518 16.7826 33.0365 13.2206 30.4079 10.5921C27.7794 7.96349 24.2174 6.48198 20.5 6.47117ZM27.0053 14.2885L28.372 15.5868C28.5144 15.772 28.5916 15.999 28.5916 16.2326C28.5916 16.4662 28.5144 16.6932 28.372 16.8783L19.6663 26.5407C19.4973 26.7359 19.287 26.8911 19.0507 26.9951C18.8143 27.0991 18.5578 27.1493 18.2997 27.142C18.0429 27.1401 17.7893 27.0857 17.5543 26.9823C17.3193 26.8789 17.1079 26.7286 16.933 26.5407L12.2317 21.8667C12.1401 21.7859 12.0667 21.6865 12.0164 21.5752C11.9662 21.4638 11.9402 21.3431 11.9402 21.2209C11.9402 21.0988 11.9662 20.978 12.0164 20.8667C12.0667 20.7553 12.1401 20.656 12.2317 20.5752L13.5983 19.2768C13.6859 19.1833 13.7917 19.1088 13.9093 19.0578C14.0268 19.0069 14.1536 18.9806 14.2817 18.9806C14.4098 18.9806 14.5365 19.0069 14.6541 19.0578C14.7716 19.1088 14.8774 19.1833 14.965 19.2768L18.2928 22.6935L25.6387 14.2885C25.7262 14.195 25.8321 14.1204 25.9496 14.0695C26.0671 14.0185 26.1939 13.9922 26.322 13.9922C26.4501 13.9922 26.5769 14.0185 26.6944 14.0695C26.8119 14.1204 26.9178 14.195 27.0053 14.2885Z" fill="#003296"/>
</svg>
