<svg width="25" height="35" viewBox="0 0 25 35" fill="none" xmlns="http://www.w3.org/2000/svg">
<path d="M17.6847 18.2923L13.2178 18.3868L13.0405 24.4726C13.0405 24.8576 12.7283 25.1691 12.3434 25.1691C11.959 25.1691 11.6468 24.8576 11.6468 24.4726L11.4436 17.5052C11.4436 17.0086 11.8462 16.606 12.3433 16.606L17.6846 16.7175C18.1193 16.7175 18.4717 17.0705 18.4717 17.5052C18.4718 17.9405 18.1194 18.2923 17.6847 18.2923Z" fill="#003296"/>
<path d="M23.3641 23.094L20.4366 30.184H16.2321V29.2666C15.008 29.673 13.7039 29.9012 12.3435 29.9012C10.9831 29.9012 9.67784 29.6731 8.4538 29.2666V30.184H4.24929L1.31954 23.0885C0.482207 21.4237 0 19.5496 0 17.5583C0 15.5676 0.482822 13.6935 1.31954 12.0281L4.24929 4.9331H8.4538V5.85055C9.67784 5.44402 10.9831 5.21481 12.3435 5.21481C13.7039 5.21481 15.008 5.44347 16.2321 5.85V4.9331H20.4366L23.3635 12.0215C24.2026 13.6885 24.6864 15.5649 24.6864 17.5583C24.6864 19.5512 24.2026 21.427 23.3641 23.094ZM21.5336 17.5583C21.5325 15.0158 20.5073 12.7279 18.842 11.0598C17.1733 9.39389 14.8866 8.36877 12.3435 8.36816C9.80048 8.3687 7.51263 9.39389 5.845 11.0598C4.17908 12.7279 3.15335 15.0158 3.15335 17.5583C3.15335 20.1014 4.17908 22.3886 5.845 24.0567C7.51256 25.7221 9.80041 26.7478 12.3435 26.7484C14.8866 26.7478 17.1744 25.7221 18.842 24.0567C20.5073 22.3892 21.5325 20.1014 21.5336 17.5583Z" fill="#003296"/>
<path d="M20.2781 33.212C20.2781 34.1996 19.4777 35 18.4901 35H6.19578C5.20813 35 4.40723 34.1996 4.40723 33.212V31.5306H20.2781V33.212Z" fill="#003296"/>
<path d="M4.40723 1.78751C4.40723 0.800397 5.20813 4.43459e-05 6.19578 4.43459e-05H18.4901C19.4778 4.43459e-05 20.2781 0.800397 20.2781 1.78751V3.46887H4.40723V1.78751Z" fill="#003296"/>
</svg>
